<svg width="190" height="117" viewBox="0 0 190 117" fill="none" xmlns="http://www.w3.org/2000/svg">
<g clip-path="url(#clip0)">
<path d="M179.974 73.8509C173.26 91.1558 160.635 106.311 143.1 112.973C140.819 113.838 138.49 114.572 136.125 115.171C123.614 118.345 109.928 117.241 98.3951 111.457C93.5005 109 89.0372 105.754 84.1249 103.333C79.2125 100.911 73.6028 99.3261 68.2561 100.521C63.6525 101.551 59.7684 104.5 55.8577 107.127C46.6387 113.321 35.5538 118.223 24.6372 116.096C19.6141 115.118 14.6677 112.41 12.3349 107.883C7.17876 97.8749 16.903 85.9761 14.9336 74.908C13.6734 67.8244 7.91746 62.5197 4.33919 56.2681C-1.78465 45.5779 -1.06072 31.3708 6.11946 21.351C13.2996 11.3312 26.5549 6.01627 38.708 8.28929C53.5264 11.0607 64.7325 23.5432 79.1431 27.9584C88.1552 30.718 97.9401 29.8947 106.547 26.2602C120.454 20.3866 139.56 11.3783 155.21 12.8456C163.532 13.6263 171.695 17.302 177.188 23.5785C184.132 31.5017 186.213 42.7506 185.055 53.1982C184.26 60.2711 182.553 67.2125 179.974 73.8509Z" fill="url(#paint0_linear)"/>
<path d="M184.442 87.536C184.133 87.5356 183.826 87.4986 183.526 87.4257C182.578 87.1938 181.754 86.6104 181.224 85.7947C180.693 84.979 180.495 83.9926 180.671 83.0367C180.846 82.0808 181.382 81.2277 182.168 80.6514C182.954 80.0752 183.932 79.8192 184.901 79.9359C185.87 80.0526 186.758 80.5331 187.384 81.2793C188.009 82.0255 188.325 82.9811 188.266 83.9511C188.208 84.921 187.779 85.8321 187.069 86.4983C186.358 87.1646 185.418 87.5357 184.442 87.536ZM184.442 81.6285C183.934 81.6305 183.444 81.8171 183.065 82.1534C182.686 82.4897 182.443 82.9523 182.383 83.4542C182.323 83.9561 182.449 84.4626 182.738 84.8784C183.027 85.2941 183.458 85.5904 183.951 85.7114C184.237 85.7797 184.534 85.7871 184.822 85.7331C185.111 85.679 185.385 85.5648 185.626 85.3978C185.867 85.2309 186.07 85.0151 186.221 84.7646C186.372 84.5141 186.468 84.2345 186.503 83.9444C186.538 83.6542 186.511 83.36 186.423 83.0811C186.336 82.8022 186.19 82.5448 185.995 82.3261C185.8 82.1073 185.561 81.9321 185.293 81.8118C185.026 81.6916 184.736 81.6291 184.442 81.6285Z" fill="#E7F6FF"/>
<path d="M180.945 91.5811C181.162 90.687 180.611 89.7865 179.712 89.5697C178.814 89.3529 177.909 89.902 177.691 90.796C177.473 91.6901 178.025 92.5907 178.923 92.8075C179.822 93.0243 180.727 92.4752 180.945 91.5811Z" fill="#E7F6FF"/>
<path d="M8.15388 87.173C7.13913 87.1509 6.17407 86.7314 5.46822 86.0056C4.76237 85.2797 4.37269 84.3061 4.38378 83.2961C4.39486 82.286 4.80582 81.3211 5.52744 80.6108C6.24906 79.9005 7.2231 79.5021 8.23809 79.5021C9.25309 79.5021 10.2271 79.9005 10.9487 80.6108C11.6704 81.3211 12.0813 82.286 12.0924 83.2961C12.1035 84.3061 11.7138 85.2797 11.008 86.0056C10.3021 86.7314 9.33706 87.1509 8.3223 87.173H8.15388ZM8.15388 81.2669H8.06671C7.51865 81.2787 6.9974 81.5052 6.61611 81.8972C6.23483 82.2891 6.0243 82.815 6.03023 83.3605C6.03617 83.906 6.25808 84.4271 6.6478 84.8108C7.03752 85.1945 7.56358 85.4096 8.11177 85.4096C8.65996 85.4096 9.18602 85.1945 9.57574 84.8108C9.96546 84.4271 10.1874 83.906 10.1933 83.3605C10.1992 82.815 9.98872 82.2891 9.60743 81.8972C9.22615 81.5052 8.70489 81.2787 8.15683 81.2669H8.15388Z" fill="#E7F6FF"/>
<path d="M5.40524 93.6102C6.32885 93.5706 7.04529 92.7933 7.00545 91.8742C6.96561 90.9551 6.18458 90.2421 5.26097 90.2817C4.33736 90.3214 3.62092 91.0986 3.66076 92.0178C3.7006 92.9369 4.48163 93.6499 5.40524 93.6102Z" fill="#E7F6FF"/>
<path d="M104.76 25.1575C103.84 25.1589 102.95 24.8325 102.251 24.2374C101.552 23.6423 101.091 22.818 100.95 21.9135C100.809 21.009 100.998 20.0841 101.482 19.3063C101.967 18.5285 102.716 17.9491 103.593 17.673C104.47 17.3969 105.417 17.4424 106.263 17.8012C107.109 18.1599 107.799 18.8083 108.206 19.629C108.613 20.4496 108.712 21.3883 108.484 22.2751C108.257 23.1619 107.717 23.9382 106.964 24.4636C106.318 24.9141 105.549 25.1563 104.76 25.1575ZM104.748 19.2515C104.21 19.251 103.692 19.4571 103.303 19.827C102.914 20.1969 102.683 20.702 102.659 21.2371C102.635 21.7721 102.819 22.2958 103.173 22.699C103.527 23.1021 104.024 23.3537 104.56 23.4012C105.096 23.4487 105.63 23.2885 106.051 22.954C106.471 22.6195 106.745 22.1365 106.816 21.6056C106.888 21.0747 106.75 20.537 106.433 20.1045C106.115 19.6719 105.643 19.378 105.113 19.2839C104.992 19.2625 104.87 19.2517 104.748 19.2515Z" fill="#E7F6FF"/>
<path d="M96.9019 24.9468C97.6588 24.4186 97.8421 23.3798 97.3113 22.6265C96.7806 21.8733 95.7367 21.6908 94.9798 22.2191C94.2229 22.7473 94.0395 23.7861 94.5703 24.5394C95.1011 25.2926 96.145 25.475 96.9019 24.9468Z" fill="#E7F6FF"/>
<path d="M189.994 44.9163C189.996 43.2999 189.352 41.749 188.205 40.6048C187.057 39.4606 185.5 38.8167 183.876 38.8147C183.74 38.8147 183.606 38.8147 183.473 38.828C183.482 38.6956 183.486 38.5618 183.486 38.4266C183.486 37.5602 183.3 36.7038 182.941 35.9145C182.582 35.1252 182.058 34.4211 181.405 33.8492C180.751 33.2772 179.982 32.8506 179.149 32.5977C178.316 32.3447 177.439 32.2713 176.576 32.3824C175.712 32.4934 174.883 32.7863 174.142 33.2416C173.401 33.6969 172.767 34.304 172.28 35.0226C171.794 35.7412 171.467 36.5547 171.322 37.4089C171.176 38.2631 171.215 39.1383 171.436 39.9762C170.696 39.442 169.845 39.0794 168.946 38.9152C168.046 38.751 167.121 38.7893 166.238 39.0274C165.356 39.2654 164.538 39.697 163.845 40.2907C163.152 40.8843 162.601 41.6249 162.233 42.458C161.865 43.2912 161.689 44.1957 161.718 45.1053C161.747 46.0149 161.981 46.9065 162.401 47.7145C162.822 48.5226 163.419 49.2267 164.149 49.7752C164.879 50.3236 165.723 50.7025 166.619 50.8841C166.985 51.8497 167.591 52.7071 168.381 53.3759C169.17 54.0447 170.118 54.5029 171.134 54.7078C172.151 54.9126 173.203 54.8572 174.192 54.5469C175.181 54.2366 176.075 53.6815 176.789 52.9336C177.52 53.4828 178.366 53.8618 179.264 54.0428C180.162 54.2237 181.089 54.2019 181.977 53.979C182.865 53.7561 183.692 53.3378 184.396 52.7548C185.101 52.1719 185.664 51.4392 186.046 50.6106C187.207 50.1712 188.205 49.3914 188.91 48.3746C189.615 47.3577 189.993 46.1517 189.994 44.9163Z" fill="white"/>
<path d="M28.2849 30.2579C28.2849 28.6415 27.6398 27.0912 26.4914 25.9481C25.343 24.805 23.7854 24.1626 22.1611 24.1622C22.0252 24.1622 21.8907 24.1622 21.7578 24.1754C21.7666 24.0431 21.7711 23.9093 21.7711 23.7741C21.7709 22.9077 21.5851 22.0513 21.2262 21.262C20.8673 20.4727 20.3434 19.7686 19.6895 19.1967C19.0356 18.6247 18.2667 18.1981 17.434 17.9451C16.6014 17.6922 15.7241 17.6188 14.8607 17.7298C13.9973 17.8409 13.1676 18.1338 12.4269 18.5891C11.6862 19.0443 11.0516 19.6515 10.5653 20.3701C10.0789 21.0887 9.75212 21.9022 9.6066 22.7563C9.46108 23.6105 9.50021 24.4858 9.72135 25.3237C8.98105 24.7894 8.12994 24.4269 7.23046 24.2627C6.33099 24.0985 5.40598 24.1368 4.52333 24.3748C3.64068 24.6128 2.82278 25.0445 2.12965 25.6382C1.43653 26.2318 0.885766 26.9724 0.517787 27.8055C0.149807 28.6386 -0.0260511 29.5432 0.00311684 30.4528C0.0322848 31.3624 0.265739 32.2539 0.686347 33.062C1.10696 33.8701 1.70404 34.5742 2.43379 35.1227C3.16354 35.6711 4.00744 36.05 4.90354 36.2315C5.26976 37.1963 5.87596 38.0529 6.66541 38.721C7.45487 39.3891 8.40176 39.847 9.41747 40.0518C10.4332 40.2566 11.4845 40.2015 12.473 39.8918C13.4615 39.5822 14.3549 39.0279 15.0696 38.2811C15.8007 38.8303 16.6463 39.2093 17.5442 39.3902C18.442 39.5711 19.3692 39.5494 20.2574 39.3265C21.1457 39.1036 21.9724 38.6852 22.6767 38.1023C23.381 37.5194 23.9449 36.7866 24.327 35.9581C25.4901 35.52 26.4917 34.74 27.1986 33.7218C27.9056 32.7037 28.2845 31.4955 28.2849 30.2579Z" fill="white"/>
<g opacity="0.04">
<path opacity="0.04" d="M135.655 81.7256H92.2579L49.49 95.199V95.496H5.77808V109.891H49.49V109.594L92.2579 96.1209H135.655V96.0224L179.052 82.3519V67.9567L135.655 81.6271V81.7256Z" fill="#A8A8A8"/>
</g>
<path d="M60.1687 25.4266H22.8599V110.366H60.1687V25.4266Z" fill="white"/>
<path d="M169.969 86.2246L132.662 97.9764V13.0368L169.969 1.28503V86.2246Z" fill="#E5E5E5"/>
<path d="M132.931 13.0367H95.6219V97.9763H132.931V13.0367Z" fill="white"/>
<path d="M95.8909 97.9763L58.582 109.73V24.79L95.8909 13.0367V97.9763Z" fill="#E5E5E5"/>
<path d="M55.8976 57.1091H47.5769V103.585H55.8976V57.1091Z" fill="#E8EDF7"/>
<path d="M104.531 46.96H99.1116V91.2999H116.852L104.531 46.96Z" fill="#C0CEE2"/>
<path d="M106.417 46.96L118.739 91.2999H129.441V46.96H106.417Z" fill="#C0CEE2"/>
<path d="M164.676 8.96417L137.224 17.3299V21.3173V30.1711V30.9342L164.676 8.96417Z" fill="#C0CEE2"/>
<path d="M137.224 33.4718V34.107V43.6004L166.212 34.7009V21.3172V10.2726L137.224 33.4718Z" fill="#E8837E"/>
<path d="M166.212 68.5654V65.8278V43.5696V39.6337V36.6579L137.224 45.5559V46.663L166.212 68.5654Z" fill="#C0CEE2"/>
<path d="M63.682 89.6973V102.518V102.577L70.1205 100.496L70.1309 100.438L74.1568 99.1393L74.1479 99.1952L92.6701 93.2098V93.1686V81.5153V77.5795V60.8494L63.682 89.6973Z" fill="#C0CEE2"/>
<path d="M92.611 58.3838L92.6701 58.4426V55.3228V51.3869V47.7936L63.682 56.693V68.1169V72.0528V87.1729L92.611 58.3838Z" fill="#C0CEE2"/>
<path d="M154.675 62.0066L137.224 48.8213V56.3652V60.2996V67.3642L154.675 62.0066Z" fill="#E8837E"/>
<path d="M45.6991 86.1702V57.1091H25.568V92.3497L45.6991 86.1702Z" fill="#E8837E"/>
<path d="M25.568 94.3066V103.585H45.6991V88.1257L25.568 94.3066Z" fill="#E8EDF7"/>
<path d="M167.018 17.3108H165.676V18.9134H167.018V17.3108Z" fill="white"/>
<path d="M167.018 31.734H165.676V28.523H167.018V31.734ZM167.018 25.3237H165.676V22.1185H167.018V25.3237Z" fill="white"/>
<path d="M165.609 38.3839L164.705 37.3974L165.676 36.5153V35.2067H167.017V37.1048L165.609 38.3839Z" fill="white"/>
<path d="M129.978 57.9104H126.761V56.5754H129.982L129.978 57.9104ZM123.805 57.9104H120.584V56.5754H123.806L123.805 57.9104ZM117.363 57.9104H114.143V56.5754H117.363V57.9104ZM133.415 57.6164L133.104 56.3167L136.217 55.5757L136.528 56.8754L133.415 57.6164ZM139.647 56.1344L139.334 54.8405L142.45 54.1054L142.761 55.4051L139.647 56.1344ZM145.879 54.6524L145.567 53.3526L147.502 52.8925L148.144 52.3044L149.048 53.2909L148.151 54.1054L145.879 54.6524ZM151.413 51.1473L150.509 50.1607L152.873 48.0112L153.777 48.9978L151.413 51.1473ZM156.141 46.8468L155.237 45.8602L157.601 43.7107L158.505 44.6973L156.141 46.8468ZM160.869 42.5477L159.964 41.5612L162.328 39.4117L163.232 40.3982L160.869 42.5477Z" fill="white"/>
<path d="M109.16 58.9734L107.97 58.3545L108.904 56.5754H110.921V57.9104H109.716L109.16 58.9734Z" fill="white"/>
<path d="M104.111 68.3198L102.922 67.7023L104.166 65.3323L105.355 65.9498L104.111 68.3198ZM106.599 63.5797L105.41 62.9622L106.654 60.5922L107.843 61.2097L106.599 63.5797Z" fill="white"/>
<path d="M101.536 73.2261L100.172 70.7061L101.354 70.0724L101.518 70.3753L101.678 70.0709L102.867 70.6884L101.536 73.2261Z" fill="white"/>
<path d="M98.6144 65.0078L97.4332 65.6407L98.8033 68.1728L99.9844 67.5399L98.6144 65.0078Z" fill="white"/>
<path d="M96.0638 63.1107L95.5556 62.1742L94.5273 62.4667L94.158 61.1832L96.2248 60.5936L97.2442 62.4785L96.0638 63.1107Z" fill="white"/>
<path d="M59.4641 72.6013H58.8495V71.2663H59.275L61.6388 70.5914L62.0082 71.875L59.4641 72.6013ZM55.6228 72.6013H52.668V71.2663H55.6228V72.6013ZM49.4503 72.6013H46.4954V71.2663H49.4503V72.6013ZM43.5406 72.6013H40.5858V71.2663H43.5406V72.6013ZM37.368 72.6013H34.4236V71.2663H37.3784L37.368 72.6013ZM64.9719 70.8987L64.601 69.6152L67.5558 68.7712L67.9267 70.0548L64.9719 70.8987ZM70.8815 69.2123L70.5121 67.9288L73.4669 67.0863L73.8363 68.3699L70.8815 69.2123ZM76.7911 67.5259L76.4217 66.2424L79.3765 65.3999L79.7459 66.6835L76.7911 67.5259ZM82.7007 65.8395L82.3313 64.556L85.2862 63.7135L85.6555 64.9971L82.7007 65.8395ZM88.6103 64.1532L88.241 62.8696L91.1958 62.0272L91.5651 63.3107L88.6103 64.1532Z" fill="white"/>
<path d="M30.1317 73.4025H28.7887V70.9987H31.2043V72.3351H30.1317V73.4025Z" fill="white"/>
<path d="M30.3991 77.4104H29.0576V81.4168H30.3991V77.4104Z" fill="white"/>
<path d="M30.3991 85.6895H29.0576V87.292H30.3991V85.6895Z" fill="white"/>
<path d="M55.8976 31.2003H36.5731V55.2405H55.8976V31.2003Z" fill="#E8EDF7"/>
<path d="M34.6939 31.2003H25.568V55.2405H34.6939V31.2003Z" fill="#E8837E"/>
<path d="M156.516 63.3974L143.644 67.3494L152.385 85.9247L166.212 81.4566V81.4169V70.7237L156.516 63.3974Z" fill="#E8837E"/>
<path d="M150.584 86.5069L141.831 67.9067L137.224 69.3211V90.7647V90.825L143.663 88.7446L143.673 88.6858L147.699 87.3876L147.69 87.442L150.584 86.5069Z" fill="#C0CEE2"/>
<path d="M22.9205 110.488L21.1476 110.482L21.1919 97.6559V24.124H58.4446L95.4772 12.4575L100.397 12.3707H132.525L170.856 0.295532V20.0175H169.083V2.70528L132.799 14.135H100.406L95.7668 14.2174L58.7194 25.8883H22.9648V97.6588L22.9205 110.488Z" fill="#426572"/>
<path d="M59.4389 110.828H22.0784V109.064H59.3355L59.5232 109.041L95.7491 97.3103H132.873L133.386 97.2441L169.083 85.7982V41.6288H170.856V87.0832L133.776 98.9732L132.987 99.0746H96.0313L59.9028 110.773L59.4389 110.828Z" fill="#426572"/>
<path d="M170.856 34.426H169.083V37.7341H170.856V34.426Z" fill="#426572"/>
<path d="M170.856 23.3741H169.083V32.2927H170.856V23.3741Z" fill="#426572"/>
<path opacity="0.2" d="M98.6906 3.46393C76.4823 3.41688 62.642 17.324 62.6006 39.225C62.5859 45.9881 66.1641 56.5534 72.3397 69.3093C75.129 74.6919 78.5152 80.6715 82.1068 86.6583C86.4917 94.0331 91.2755 101.411 96.0653 108.189L98.4587 111.382C99.2609 110.385 100.063 109.393 100.865 108.199C105.683 101.242 110.5 94.0846 114.917 86.7333C118.534 80.767 121.747 74.8022 124.558 69.4299C130.99 56.7019 134.612 46.1557 134.627 39.3882C134.673 18.0753 120.299 3.51097 98.6906 3.46393ZM98.5651 61.2009C85.36 61.1729 74.5794 50.4004 74.609 37.2578C74.6385 24.1151 85.4649 13.3896 98.67 13.4176C111.875 13.4455 122.656 24.221 122.625 37.3607C122.594 50.5003 111.772 61.2303 98.5665 61.2023L98.5651 61.2009Z" fill="#8DA3B2"/>
<path d="M117.112 34.4481C117.084 47.5937 106.256 58.3192 93.0514 58.2898C81.6148 58.2648 71.9954 50.1813 69.6463 39.4705C69.4051 38.0966 69.2859 36.7043 69.2903 35.3097C69.3154 22.1715 80.1433 11.4415 93.3468 11.468C104.766 11.493 114.373 19.5544 116.744 30.2329C116.744 30.2387 116.744 30.2447 116.744 30.2505C116.992 31.6361 117.115 33.0408 117.112 34.4481Z" fill="white"/>
<path d="M93.4162 0.852727C71.2109 0.804208 57.3735 14.7128 57.3233 36.6093C57.3085 43.3725 60.8868 53.9378 67.0623 66.6937C69.8517 72.0763 73.2379 78.0558 76.8294 84.0427C81.2144 91.4175 85.9982 98.7953 90.7879 105.573L93.1813 108.767C93.9836 107.77 94.7858 106.777 95.588 105.583C100.406 98.6262 105.222 91.469 109.64 84.1177C113.256 78.1514 116.47 72.1866 119.281 66.8143C125.712 54.0863 129.335 43.5401 129.35 36.7725C129.397 15.4641 115.025 0.898305 93.4162 0.852727ZM93.2907 58.5897C80.0871 58.5617 69.3065 47.7833 69.3346 34.6465C69.3626 21.5098 80.1905 10.777 93.3941 10.8049C106.598 10.8328 117.38 21.6127 117.352 34.7495C117.324 47.8862 106.496 58.6191 93.2907 58.5897Z" fill="#E8837E"/>
<path d="M117.897 69.9842C115.427 74.6434 112.673 79.6584 109.632 84.6735C105.218 92.0248 100.4 99.1864 95.5822 106.139C94.7799 107.333 93.9777 108.325 93.174 109.322L90.7806 106.129C85.9938 99.3511 81.207 91.9733 76.8236 84.6C73.232 78.616 69.8458 72.6365 67.0565 67.251C60.8809 54.495 57.3056 43.9342 57.3174 37.1666C57.3366 28.1289 59.7049 20.4542 64.0396 14.557C62.3229 19.0045 61.4143 24.071 61.401 29.6565C61.3862 36.4197 64.9645 46.9864 71.14 59.7409C73.9293 65.1235 77.3155 71.103 80.9071 77.0899C85.2906 84.4632 90.0759 91.841 94.8641 98.6189L97.2575 101.812C98.0612 100.815 98.8635 99.823 99.6657 98.6292C104.482 91.6734 109.3 84.5147 113.716 77.1634C115.177 74.7596 116.567 72.3527 117.897 69.9842Z" fill="#D66765"/>
<path d="M93.1474 110.625L89.937 106.342C85.1458 99.5598 80.3043 92.0909 75.9356 84.7426C72.1904 78.5117 68.8027 72.4836 66.139 67.3465L66.1272 67.3215C59.5823 53.804 56.2714 43.5313 56.2862 36.7887C56.3098 25.7412 59.7817 16.461 66.3237 9.95069C72.8656 3.4404 82.1939 0 93.2966 0H93.4119C104.272 0.0235241 113.546 3.58154 120.231 10.2918C123.532 13.6232 126.095 17.6066 127.753 21.9847C129.506 26.5425 130.39 31.5767 130.378 36.9475C130.363 43.7504 126.844 54.2965 120.199 67.4494V67.4627C117.696 72.2439 114.335 78.5366 110.526 84.822C105.807 92.682 100.758 100.113 96.4405 106.345C95.6309 107.548 94.8154 108.565 94.0191 109.549L93.1474 110.625ZM91.6212 105.147L93.2035 107.258C93.7162 106.607 94.2185 105.935 94.7253 105.189C99.0304 98.9732 104.057 91.5763 108.747 83.7634C112.527 77.528 115.867 71.2736 118.35 66.5202C124.851 53.6555 128.292 43.4284 128.307 36.9446C128.329 26.7469 125.027 18.0312 118.76 11.7415C112.473 5.42818 103.705 2.08041 93.4074 2.05836H93.2966C82.7539 2.05836 73.9338 5.29292 67.7848 11.4062C61.6359 17.5196 58.3767 26.3014 58.3575 36.7931C58.3442 43.1299 61.6743 53.3732 67.9872 66.4159C70.6303 71.5176 73.9943 77.4913 77.7159 83.6914C82.0536 90.9926 86.8625 98.4101 91.6212 105.147ZM93.338 59.7968H93.2833C88.3298 59.7921 83.4893 58.324 79.3752 55.5785C75.2611 52.833 72.0587 48.9337 70.1741 44.3749C68.2894 39.8161 67.8073 34.8031 68.7888 29.9714C69.7704 25.1396 72.1713 20.7066 75.6874 17.2343C78.0014 14.9228 80.7519 13.0895 83.7806 11.84C86.8093 10.5905 90.0564 9.9494 93.335 9.95363H93.3897C98.3429 9.95854 103.183 11.4268 107.297 14.1722C111.411 16.9177 114.613 20.8167 116.497 25.3752C118.382 29.9337 118.864 34.9463 117.883 39.7779C116.902 44.6094 114.501 49.0422 110.986 52.5146C108.672 54.8264 105.921 56.6599 102.893 57.9097C99.8639 59.1595 96.6167 59.8008 93.338 59.7968ZM93.338 12.0135C87.2899 12.075 81.5101 14.5076 77.2529 18.7832C72.9956 23.0589 70.6043 28.8328 70.5979 34.8519C70.5915 40.8711 72.9705 46.65 77.2186 50.9347C81.4667 55.2193 87.2413 57.6641 93.2892 57.7384H93.3395C99.3876 57.6768 105.167 55.2443 109.425 50.9686C113.682 46.693 116.073 40.9191 116.08 34.8999C116.086 28.8807 113.707 23.1018 109.459 18.8172C105.211 14.5325 99.4362 12.0878 93.3882 12.0135H93.338Z" fill="#426572"/>
<path d="M140.971 117H52.8438V115.089H140.971C141.226 115.089 141.47 115.189 141.65 115.369C141.83 115.548 141.931 115.791 141.931 116.044C141.931 116.298 141.83 116.541 141.65 116.72C141.47 116.899 141.226 117 140.971 117Z" fill="#426572"/>
<path d="M48.9021 117H43.514C43.2593 117 43.0151 116.899 42.835 116.72C42.6549 116.541 42.5537 116.298 42.5537 116.044C42.5537 115.791 42.6549 115.548 42.835 115.369C43.0151 115.189 43.2593 115.089 43.514 115.089H48.9021C49.1568 115.089 49.4011 115.189 49.5812 115.369C49.7612 115.548 49.8624 115.791 49.8624 116.044C49.8624 116.298 49.7612 116.541 49.5812 116.72C49.4011 116.899 49.1568 117 48.9021 117Z" fill="#426572"/>
<path d="M40.017 117H38.3003C38.0456 117 37.8013 116.899 37.6212 116.72C37.4411 116.541 37.34 116.298 37.34 116.044C37.34 115.791 37.4411 115.548 37.6212 115.369C37.8013 115.189 38.0456 115.089 38.3003 115.089H40.017C40.2717 115.089 40.516 115.189 40.6961 115.369C40.8762 115.548 40.9773 115.791 40.9773 116.044C40.9773 116.298 40.8762 116.541 40.6961 116.72C40.516 116.899 40.2717 117 40.017 117Z" fill="#426572"/>
<path d="M171.872 117H144.786V115.089H171.872C172.127 115.089 172.371 115.189 172.551 115.369C172.731 115.548 172.833 115.791 172.833 116.044C172.833 116.298 172.731 116.541 172.551 116.72C172.371 116.899 172.127 117 171.872 117Z" fill="#426572"/>
<path d="M33.3893 117H6.30115V115.089H33.3893C33.644 115.089 33.8883 115.189 34.0684 115.369C34.2485 115.548 34.3497 115.791 34.3497 116.044C34.3497 116.298 34.2485 116.541 34.0684 116.72C33.8883 116.899 33.644 117 33.3893 117Z" fill="#426572"/>
<path d="M113.329 12.9C118.488 17.6651 122.057 23.8181 123.483 30.6974C123.992 33.2244 124.243 35.7963 124.23 38.3736C124.23 39.5087 126.003 39.5102 126.003 38.3736C125.994 30.0991 123.48 22.0935 118.275 15.5964C117.144 14.1908 115.91 12.8713 114.582 11.6488C113.747 10.8769 112.49 12.1222 113.327 12.8971L113.329 12.9Z" fill="white"/>
<path d="M104.046 6.72787L104.15 6.77051C103.866 6.6573 104.297 6.83667 104.362 6.86608C104.795 7.06162 105.221 7.27187 105.642 7.48947C107.095 8.25227 108.495 9.11188 109.832 10.0624C110.764 10.7196 111.652 9.19055 110.727 8.53923C108.796 7.17777 106.728 5.89277 104.522 5.02679C103.461 4.60923 103 6.31473 104.051 6.72787H104.046Z" fill="white"/>
</g>
<defs>
<linearGradient id="paint0_linear" x1="0.195071" y1="62.3432" x2="185.355" y2="62.3432" gradientUnits="userSpaceOnUse">
<stop stop-color="#C5E9FA"/>
<stop offset="1" stop-color="#C4F4EA"/>
</linearGradient>
<clipPath id="clip0">
<rect width="190" height="117" fill="white"/>
</clipPath>
</defs>
</svg>
