<svg width="200" height="116" viewBox="0 0 200 116" fill="none" xmlns="http://www.w3.org/2000/svg">
<g clip-path="url(#clip0)">
<path d="M189.447 69.9239C182.378 88.2317 169.09 104.271 150.631 111.32C148.231 112.236 145.779 113.012 143.289 113.646C130.12 117.005 115.713 115.837 103.574 109.716C98.4215 107.117 93.7234 103.682 88.5525 101.119C83.3815 98.5571 77.4766 96.88 71.8485 98.1448C67.0026 99.2339 62.9141 102.355 58.7975 105.135C49.0933 111.689 37.425 116.876 25.9339 114.625C20.6463 113.59 15.4396 110.724 12.984 105.934C7.55652 95.3445 17.7926 82.754 15.7196 71.0424C14.393 63.5469 8.3341 57.9339 4.5675 51.3189C-1.87865 40.0041 -1.11662 24.9741 6.44147 14.3718C13.9996 3.76951 27.9525 -1.85445 40.7452 0.550706C56.3451 3.48482 68.1394 16.6914 83.3084 21.3648C92.7949 24.2849 103.095 23.4137 112.155 19.568C126.794 13.3528 146.905 3.82085 163.379 5.37347C172.139 6.19957 180.732 10.0889 186.514 16.7303C193.823 25.1141 196.014 37.0171 194.795 48.0721C193.958 55.5556 192.16 62.9 189.447 69.9239Z" fill="url(#paint0_linear)"/>
<path d="M194.15 84.4047C193.825 84.4043 193.501 84.3651 193.185 84.288C192.187 84.0426 191.32 83.4253 190.762 82.5622C190.203 81.6991 189.995 80.6552 190.18 79.6438C190.365 78.6324 190.928 77.7296 191.756 77.1199C192.583 76.5101 193.612 76.2393 194.633 76.3628C195.653 76.4863 196.588 76.9947 197.246 77.7843C197.905 78.5738 198.237 79.585 198.175 80.6113C198.113 81.6376 197.663 82.6017 196.914 83.3067C196.166 84.0117 195.177 84.4044 194.15 84.4047ZM194.15 78.1538C193.615 78.1558 193.099 78.3533 192.7 78.7091C192.301 79.065 192.046 79.5545 191.982 80.0856C191.919 80.6166 192.052 81.1526 192.356 81.5925C192.66 82.0325 193.114 82.346 193.633 82.474C193.934 82.5463 194.246 82.5541 194.55 82.4969C194.854 82.4397 195.142 82.3188 195.396 82.1422C195.649 81.9656 195.863 81.7372 196.022 81.4722C196.181 81.2071 196.282 80.9113 196.319 80.6043C196.356 80.2972 196.327 79.9859 196.235 79.6908C196.143 79.3956 195.989 79.1234 195.784 78.8919C195.579 78.6604 195.328 78.475 195.046 78.3477C194.764 78.2205 194.459 78.1544 194.15 78.1538Z" fill="#E7F6FF"/>
<path d="M190.468 88.6845C190.697 87.7385 190.116 86.7856 189.171 86.5562C188.225 86.3268 187.272 86.9077 187.043 87.8538C186.814 88.7998 187.394 89.7527 188.34 89.9821C189.286 90.2115 190.238 89.6306 190.468 88.6845Z" fill="#E7F6FF"/>
<path d="M8.58291 84.0204C7.51475 83.9971 6.4989 83.5532 5.7559 82.7851C5.0129 82.0171 4.60271 80.9869 4.61438 79.9181C4.62605 78.8494 5.05864 77.8284 5.81824 77.0768C6.57784 76.3251 7.60314 75.9036 8.67155 75.9036C9.73997 75.9036 10.7653 76.3251 11.5249 77.0768C12.2845 77.8284 12.7171 78.8494 12.7287 79.9181C12.7404 80.9869 12.3302 82.0171 11.5872 82.7851C10.8442 83.5532 9.82836 83.9971 8.7602 84.0204H8.58291ZM8.58291 77.771H8.49115C7.91425 77.7835 7.36556 78.0232 6.96421 78.4379C6.56286 78.8527 6.34125 79.409 6.34749 79.9863C6.35374 80.5635 6.58734 81.1149 6.99757 81.5209C7.4078 81.9269 7.96155 82.1546 8.53859 82.1546C9.11563 82.1546 9.66937 81.9269 10.0796 81.5209C10.4898 81.1149 10.7234 80.5635 10.7297 79.9863C10.7359 79.409 10.5143 78.8527 10.113 78.4379C9.71162 78.0232 9.16292 77.7835 8.58602 77.771H8.58291Z" fill="#E7F6FF"/>
<path d="M5.69019 90.8318C6.66241 90.7898 7.41655 89.9674 7.37461 88.9948C7.33267 88.0222 6.51054 87.2678 5.53832 87.3098C4.56609 87.3517 3.81195 88.1742 3.85389 89.1467C3.89583 90.1193 4.71797 90.8737 5.69019 90.8318Z" fill="#E7F6FF"/>
<path d="M110.273 18.3981C109.305 18.3989 108.369 18.053 107.633 17.423C106.898 16.7929 106.412 15.9203 106.265 14.9631C106.117 14.0059 106.316 13.0274 106.827 12.2046C107.338 11.3819 108.126 10.7693 109.05 10.4777C109.973 10.1861 110.97 10.2348 111.861 10.615C112.751 10.9952 113.476 11.6818 113.904 12.5504C114.333 13.4191 114.436 14.4124 114.196 15.3506C113.955 16.2888 113.387 17.1099 112.594 17.6653C111.914 18.1415 111.104 18.3972 110.273 18.3981ZM110.261 12.1503C109.694 12.1497 109.15 12.3678 108.74 12.7592C108.33 13.1506 108.087 13.6851 108.062 14.2513C108.036 14.8174 108.23 15.3715 108.603 15.7981C108.976 16.2247 109.499 16.4909 110.064 16.5412C110.628 16.5915 111.19 16.422 111.632 16.068C112.075 15.714 112.363 15.2029 112.438 14.6412C112.513 14.0795 112.369 13.5105 112.035 13.0528C111.701 12.5951 111.203 12.2841 110.645 12.1845C110.518 12.1619 110.39 12.1504 110.261 12.1503Z" fill="#E7F6FF"/>
<path d="M102.001 18.1763C102.797 17.6173 102.99 16.5181 102.432 15.7211C101.873 14.924 100.774 14.731 99.9774 15.2899C99.1807 15.8488 98.9877 16.9481 99.5464 17.7451C100.105 18.5421 101.204 18.7352 102.001 18.1763Z" fill="#E7F6FF"/>
<path d="M199.994 39.3071C199.994 37.5965 199.314 35.9559 198.105 34.7463C196.896 33.5366 195.256 32.8571 193.546 32.8571C193.403 32.8571 193.261 32.8571 193.122 32.8711C193.131 32.7311 193.136 32.5895 193.136 32.4464C193.135 31.5296 192.94 30.6235 192.562 29.7883C192.184 28.9531 191.633 28.2081 190.944 27.6029C190.256 26.9977 189.447 26.5462 188.57 26.2786C187.694 26.0109 186.77 25.9333 185.861 26.0508C184.953 26.1682 184.079 26.4782 183.3 26.9599C182.52 27.4417 181.852 28.0841 181.34 28.8445C180.828 29.6049 180.484 30.4657 180.331 31.3695C180.178 32.2733 180.219 33.1994 180.452 34.0861C179.672 33.5208 178.776 33.1372 177.83 32.9634C176.883 32.7897 175.909 32.8302 174.98 33.0821C174.051 33.3339 173.19 33.7907 172.46 34.4188C171.731 35.047 171.151 35.8306 170.764 36.7122C170.376 37.5937 170.191 38.5509 170.222 39.5134C170.253 40.4758 170.498 41.4192 170.941 42.2743C171.384 43.1293 172.012 43.8744 172.781 44.4547C173.549 45.0351 174.437 45.436 175.38 45.6281C175.765 46.6499 176.404 47.5571 177.235 48.2647C178.066 48.9724 179.064 49.4573 180.134 49.6741C181.204 49.8908 182.311 49.8322 183.352 49.5039C184.393 49.1755 185.334 48.5882 186.086 47.7968C186.856 48.3779 187.746 48.779 188.691 48.9704C189.636 49.1618 190.612 49.1388 191.547 48.9029C192.482 48.6671 193.352 48.2244 194.093 47.6076C194.835 46.9908 195.428 46.2154 195.831 45.3387C197.054 44.8746 198.108 44.0491 198.852 42.9718C199.595 41.8945 199.994 40.6163 199.994 39.3071Z" fill="white"/>
<path d="M29.7736 23.8027C29.7744 22.9553 29.6083 22.116 29.2847 21.3328C28.9612 20.5496 28.4865 19.8379 27.8879 19.2383C27.2892 18.6387 26.5783 18.163 25.7959 17.8384C25.0134 17.5138 24.1746 17.3466 23.3275 17.3464C23.1844 17.3464 23.0429 17.3464 22.9029 17.3604C22.9122 17.2204 22.9169 17.0788 22.9169 16.9357C22.9167 16.019 22.7212 15.1128 22.3434 14.2776C21.9655 13.4424 21.4141 12.6974 20.7258 12.0922C20.0374 11.487 19.2281 11.0355 18.3516 10.7679C17.4751 10.5002 16.5517 10.4226 15.6428 10.5401C14.734 10.6576 13.8606 10.9675 13.081 11.4493C12.3013 11.931 11.6332 12.5735 11.1213 13.3338C10.6094 14.0942 10.2654 14.955 10.1122 15.8588C9.95904 16.7626 10.0002 17.6888 10.233 18.5754C9.45374 18.0101 8.55783 17.6265 7.61101 17.4527C6.6642 17.279 5.69051 17.3195 4.7614 17.5714C3.83229 17.8232 2.97135 18.28 2.24174 18.9082C1.51213 19.5363 0.932385 20.3199 0.545039 21.2015C0.157692 22.0831 -0.0274223 23.0402 0.00328088 24.0027C0.033984 24.9652 0.279725 25.9085 0.722471 26.7636C1.16522 27.6187 1.79373 28.3637 2.56189 28.9441C3.33005 29.5244 4.21835 29.9253 5.16162 30.1174C5.54711 31.1383 6.18522 32.0446 7.01622 32.7516C7.84723 33.4586 8.84396 33.9431 9.91312 34.1598C10.9823 34.3764 12.0889 34.3182 13.1295 33.9905C14.17 33.6628 15.1104 33.0764 15.8627 32.2861C16.6323 32.8672 17.5225 33.2683 18.4675 33.4597C19.4126 33.6512 20.3886 33.6281 21.3236 33.3923C22.2586 33.1564 23.1288 32.7138 23.8702 32.0969C24.6116 31.4801 25.2052 30.7048 25.6073 29.828C26.8307 29.3648 27.8843 28.5405 28.6284 27.4643C29.3725 26.3882 29.7719 25.1112 29.7736 23.8027Z" fill="white"/>
<path d="M148.39 115.58H55.625V113.557H148.39C148.658 113.557 148.916 113.664 149.105 113.854C149.295 114.043 149.401 114.301 149.401 114.569C149.401 114.837 149.295 115.094 149.105 115.284C148.916 115.473 148.658 115.58 148.39 115.58Z" fill="#426572"/>
<path d="M51.4759 115.58H45.8042C45.5361 115.58 45.279 115.473 45.0894 115.284C44.8998 115.094 44.7933 114.837 44.7933 114.569C44.7933 114.301 44.8998 114.043 45.0894 113.854C45.279 113.664 45.5361 113.557 45.8042 113.557H51.4759C51.744 113.557 52.0011 113.664 52.1906 113.854C52.3802 114.043 52.4867 114.301 52.4867 114.569C52.4867 114.837 52.3802 115.094 52.1906 115.284C52.0011 115.473 51.744 115.58 51.4759 115.58Z" fill="#426572"/>
<path d="M42.1231 115.58H40.316C40.0479 115.58 39.7908 115.473 39.6012 115.284C39.4117 115.094 39.3052 114.837 39.3052 114.569C39.3052 114.301 39.4117 114.043 39.6012 113.854C39.7908 113.664 40.0479 113.557 40.316 113.557H42.1231C42.3912 113.557 42.6483 113.664 42.8379 113.854C43.0275 114.043 43.134 114.301 43.134 114.569C43.134 114.837 43.0275 115.094 42.8379 115.284C42.6483 115.473 42.3912 115.58 42.1231 115.58Z" fill="#426572"/>
<path d="M180.918 115.58H152.406V113.557H180.918C181.186 113.557 181.443 113.664 181.633 113.854C181.823 114.043 181.929 114.301 181.929 114.569C181.929 114.837 181.823 115.094 181.633 115.284C181.443 115.473 181.186 115.58 180.918 115.58Z" fill="#426572"/>
<path d="M35.1467 115.58H6.63281V113.557H35.1467C35.4148 113.557 35.6719 113.664 35.8615 113.854C36.051 114.043 36.1575 114.301 36.1575 114.569C36.1575 114.837 36.051 115.094 35.8615 115.284C35.6719 115.473 35.4148 115.58 35.1467 115.58Z" fill="#426572"/>
<path d="M44.1822 36.6468H148.039C149.913 36.6468 151.711 37.3915 153.037 38.7171C154.363 40.0428 155.108 41.8409 155.109 43.716V110.964H37.1124V43.716C37.1133 41.8409 37.8585 40.0428 39.1842 38.7171C40.51 37.3915 42.3077 36.6468 44.1822 36.6468Z" fill="#EBF0F9"/>
<path d="M151.008 41.8041H41.6815V104.282H151.008V41.8041Z" fill="#637F91"/>
<path d="M40.8619 104.166H151.473C151.473 104.662 151.276 105.137 150.927 105.489C150.577 105.841 150.102 106.039 149.607 106.042H42.7359C42.2385 106.042 41.7614 105.844 41.4097 105.492C41.058 105.14 40.8604 104.663 40.8604 104.166H40.8619Z" fill="white"/>
<g opacity="0.5">
<path opacity="0.5" d="M74.3507 41.5707L58.0044 104.634H49.7729L66.1193 41.5707H74.3507Z" fill="#A7BCD5"/>
<path opacity="0.5" d="M95.3314 41.5707L78.9867 104.634H61.7244L78.0707 41.5707H95.3314Z" fill="#A7BCD5"/>
</g>
<path d="M156.042 111.898H36.1793V40.7011C36.181 39.3787 36.7068 38.1111 37.6415 37.1761C38.5761 36.241 39.8433 35.715 41.1652 35.7134H151.056C152.378 35.715 153.645 36.241 154.58 37.1761C155.514 38.1111 156.04 39.3787 156.042 40.7011V111.898ZM38.0455 110.031H154.176V40.7011C154.175 39.8736 153.846 39.0803 153.261 38.4952C152.676 37.9101 151.883 37.5811 151.056 37.5803H41.1652C40.338 37.5811 39.545 37.9101 38.9601 38.4952C38.3753 39.0803 38.0463 39.8736 38.0455 40.7011V110.031Z" fill="#426572"/>
<path d="M22.2311 108.738H173.155V109.234C173.155 110.843 172.516 112.387 171.378 113.524C170.241 114.662 168.698 115.301 167.09 115.301H28.2962C26.6876 115.301 25.1449 114.662 24.0075 113.524C22.8701 112.387 22.2311 110.843 22.2311 109.234V108.738Z" fill="#EBF0F9"/>
<path opacity="0.5" d="M172.382 111.902C172.05 112.765 171.465 113.507 170.702 114.031C169.94 114.554 169.037 114.834 168.113 114.833H26.3321C25.4082 114.833 24.5061 114.553 23.7446 114.03C22.9831 113.507 22.3979 112.765 22.0663 111.902H172.382Z" fill="#A7BCD5"/>
<path d="M166.385 116H27.5933C25.7379 115.998 23.9591 115.26 22.6471 113.947C21.3351 112.635 20.5972 110.855 20.5951 108.999V107.57H173.385V108.999C173.383 110.856 172.645 112.635 171.332 113.948C170.02 115.26 168.241 115.998 166.385 116ZM22.4784 109.436C22.5879 110.718 23.174 111.911 24.1208 112.781C25.0677 113.651 26.3063 114.133 27.5918 114.133H166.385C167.671 114.133 168.909 113.651 169.856 112.781C170.803 111.911 171.389 110.718 171.499 109.436H22.4784Z" fill="#426572"/>
<path d="M151.706 104.864H40.512V40.8706H151.706V104.864ZM42.3782 102.997H149.84V42.7375H42.3782V102.997Z" fill="#426572"/>
<path d="M134.296 21.7476V103.931H59.7711V21.7476C59.774 21.3771 59.9223 21.0226 60.1842 20.7607C60.4461 20.4987 60.8004 20.3503 61.1708 20.3474H132.89C132.975 20.3475 133.059 20.3553 133.142 20.3707C133.464 20.4304 133.756 20.6004 133.966 20.8517C134.177 21.1029 134.294 21.4197 134.296 21.7476Z" fill="white"/>
<path d="M60.9437 27.1397H134.531V22.1956L133.123 20.3412H68.6776H62.3496L60.006 22.1956V27.1397H60.9437Z" fill="#E2F2FF"/>
<path d="M135.464 104.864H59.0729V21.7476C59.0753 21.1294 59.3219 20.5373 59.7588 20.1002C60.1958 19.6631 60.7877 19.4165 61.4056 19.414H133.122C133.74 19.4165 134.332 19.6631 134.769 20.1002C135.206 20.5373 135.452 21.1294 135.455 21.7476L135.464 104.864ZM60.9391 102.997H133.598V21.7476C133.595 21.6248 133.544 21.5079 133.458 21.4211C133.371 21.3342 133.254 21.284 133.131 21.2809H61.4118C61.2891 21.284 61.1722 21.3342 61.0854 21.4211C60.9986 21.5079 60.9484 21.6248 60.9453 21.7476L60.9391 102.997Z" fill="#426572"/>
<path d="M129.946 23.2224H64.3899C63.872 23.2224 63.4521 23.6424 63.4521 24.1605C63.4521 24.6786 63.872 25.0986 64.3899 25.0986H129.946C130.464 25.0986 130.884 24.6786 130.884 24.1605C130.884 23.6424 130.464 23.2224 129.946 23.2224Z" fill="#CADCE8"/>
<path d="M84.3069 35.9436H68.9839V53.4098H84.3069V35.9436Z" fill="#E8837E"/>
<path d="M122.086 35.9436H85.7532V53.4098H122.086V35.9436Z" fill="#E8837E"/>
<path d="M122.087 55.3436H104.932V72.8098H122.087V55.3436Z" fill="#DDE4ED"/>
<path d="M103.485 55.3436H69.1768V72.8098H103.485V55.3436Z" fill="#DDE4ED"/>
<path d="M122.183 74.7436H69.1768V92.2098H122.183V74.7436Z" fill="#DDE4ED"/>
<path d="M122.651 94.5574H109.059V96.4242H122.651V94.5574Z" fill="#DDE4ED"/>
<path d="M48.3998 99.4797H26.1517C25.7853 99.4823 25.4243 99.3924 25.1019 99.2183C24.6354 98.9632 24.3368 98.5447 24.3368 98.0733L24.3492 67.4783C24.3496 67.278 24.4032 67.0815 24.5047 66.9089C24.7878 66.4173 25.427 66.0719 26.1641 66.0719H48.4122C49.1898 66.0719 49.8446 66.4484 50.1058 66.9742C50.185 67.1299 50.2265 67.302 50.2271 67.4767L50.2162 98.0733C50.2162 98.7796 49.5335 99.3692 48.6517 99.4657C48.5681 99.4751 48.484 99.4798 48.3998 99.4797Z" fill="white"/>
<path d="M49.0047 99.2448L26.7488 99.2401C26.3825 99.2428 26.0215 99.1528 25.6991 98.9788C25.2326 98.7236 24.934 98.3051 24.934 97.8338L24.9464 67.2387C24.9467 67.0385 25.0004 66.8419 25.1019 66.6693C25.385 66.1777 26.0241 65.8323 26.7613 65.8323H27.0645L27.0599 95.9575C27.0599 96.4243 27.3616 96.8474 27.825 97.1026C28.1474 97.2766 28.5084 97.3665 28.8747 97.3639H50.8212V97.8306C50.8212 98.537 50.1385 99.1266 49.2567 99.223C49.1732 99.2351 49.0891 99.2423 49.0047 99.2448Z" fill="#D6DEE9"/>
<path d="M48.7016 100.178H26.4519C25.9272 100.181 25.4105 100.051 24.9496 99.8002C24.172 99.3692 23.7054 98.6349 23.7054 97.8384L23.7179 67.2434C23.7198 66.8784 23.8179 66.5205 24.0025 66.2057C24.469 65.4045 25.4021 64.9051 26.4674 64.9051H48.7156C49.8042 64.9051 50.7761 65.4418 51.2178 66.2757L51.3422 66.467V66.5542C51.4227 66.7761 51.4638 67.0104 51.4635 67.2465L51.4511 97.8415C51.4511 99.0145 50.42 100.02 49.0546 100.161C48.9373 100.173 48.8195 100.179 48.7016 100.178ZM26.4627 66.7642C26.0444 66.7642 25.7178 66.9493 25.6136 67.1329C25.5932 67.1639 25.5819 67.2 25.581 67.2371L25.5685 97.8322C25.5685 97.9348 25.6821 98.0655 25.8516 98.1604C26.0364 98.2583 26.2427 98.3085 26.4519 98.3067H48.7C48.7488 98.3069 48.7977 98.3043 48.8462 98.2989C49.3127 98.2491 49.5833 97.9877 49.5833 97.8322L49.5958 67.2371C49.5958 67.2186 49.5926 67.2002 49.5864 67.1827L49.4994 67.0489C49.2843 66.8548 49.0019 66.7526 48.7124 66.7642H26.4643H26.4627Z" fill="#426572"/>
<path d="M46.1355 79.3112H31.0474V81.178H46.1355V79.3112Z" fill="#426572"/>
<path d="M46.1355 75.4156H31.0474V77.2825H46.1355V75.4156Z" fill="#426572"/>
<path d="M46.1355 83.7249H31.0474V85.5917H46.1355V83.7249Z" fill="#426572"/>
<path opacity="0.2" d="M166.713 44.1828C167.8 42.1418 168.468 39.9037 168.676 37.6006C168.884 35.2975 168.629 32.9759 167.926 30.7729C167.223 28.57 166.086 26.5302 164.582 24.774C163.078 23.0178 161.237 21.5808 159.169 20.5477C157.101 19.5145 154.847 18.9063 152.54 18.7588C150.233 18.6113 147.92 18.9275 145.737 19.6888C143.554 20.4501 141.546 21.6411 139.831 23.1915C138.115 24.7419 136.728 26.6202 135.75 28.7157C134.4 31.2523 133.702 34.0852 133.719 36.959C133.736 39.8328 134.467 42.6572 135.847 45.1777C137.227 47.6982 139.213 49.8355 141.625 51.3969C144.036 52.9584 146.799 53.895 149.663 54.1223C149.163 54.2406 148.655 54.3365 148.14 54.4101C150.851 54.8012 153.616 54.5431 156.208 53.6571C158.8 52.7711 161.144 51.2825 163.049 49.3136C164.574 47.8414 165.815 46.1025 166.713 44.1828Z" fill="#606060"/>
<path d="M149.103 50.079C158.662 50.079 166.412 42.3267 166.412 32.7637C166.412 23.2007 158.662 15.4484 149.103 15.4484C139.543 15.4484 131.794 23.2007 131.794 32.7637C131.794 42.3267 139.543 50.079 149.103 50.079Z" fill="#A8EF9E"/>
<path d="M165.586 34.0005C165.585 36.483 165.051 38.9365 164.02 41.1945C162.988 43.4525 161.484 45.4622 159.608 47.0874C157.732 48.7127 155.528 49.9154 153.147 50.6141C150.766 51.3127 148.262 51.491 145.806 51.1369C149.924 50.5412 153.691 48.4811 156.415 45.3338C159.139 42.1865 160.638 38.1628 160.638 33.9997C160.638 29.8366 159.139 25.8129 156.415 22.6656C153.691 19.5183 149.924 17.4582 145.806 16.8625C148.262 16.5081 150.766 16.6862 153.148 17.3849C155.53 18.0836 157.733 19.2864 159.609 20.9118C161.485 22.5372 162.99 24.5472 164.022 26.8055C165.053 29.0638 165.587 31.5176 165.587 34.0005H165.586Z" fill="#A7E59C"/>
<path d="M148.691 51.8354C145.083 51.8354 141.556 50.7651 138.556 48.76C135.556 46.7548 133.218 43.9047 131.837 40.5702C130.456 37.2357 130.095 33.5664 130.799 30.0265C131.503 26.4866 133.24 23.235 135.791 20.6829C138.343 18.1308 141.593 16.3927 145.132 15.6886C148.67 14.9845 152.338 15.3459 155.671 16.7271C159.005 18.1083 161.854 20.4473 163.858 23.4482C165.863 26.4492 166.933 29.9774 166.933 33.5867C166.927 38.4249 165.004 43.0634 161.584 46.4846C158.164 49.9057 153.527 51.8301 148.691 51.8354ZM148.691 17.2064C145.452 17.2064 142.286 18.1672 139.593 19.9672C136.9 21.7673 134.801 24.3258 133.561 27.3192C132.322 30.3126 131.997 33.6064 132.629 36.7842C133.261 39.962 134.821 42.8809 137.111 45.172C139.401 47.463 142.319 49.0232 145.496 49.6553C148.672 50.2874 151.965 49.963 154.957 48.7231C157.95 47.4832 160.507 45.3835 162.307 42.6895C164.106 39.9955 165.066 36.8283 165.066 33.5882C165.062 29.2449 163.335 25.0807 160.265 22.0095C157.195 18.9383 153.032 17.2109 148.691 17.2064Z" fill="#426572"/>
<path d="M157.434 26.5066C157.06 26.2978 156.621 26.2418 156.207 26.3503C155.793 26.4588 155.437 26.7233 155.214 27.0884L152.218 31.989L147.429 39.8112L147.296 40.0305L141.767 35.606L140.759 34.8002C140.098 34.2712 139.101 34.1048 138.465 34.8002C137.924 35.3898 137.758 36.5286 138.465 37.0949L145.574 42.7826L146.582 43.5885C147 43.9245 147.398 44.1081 147.944 44.035C148.188 44.005 148.422 43.9192 148.627 43.7843C148.833 43.6494 149.004 43.469 149.129 43.2571L152.126 38.3566L156.916 30.5359L158.022 28.7281C158.459 28.0032 158.197 26.9142 157.434 26.5066Z" fill="white"/>
</g>
<defs>
<linearGradient id="paint0_linear" x1="0.205267" y1="57.7472" x2="195.111" y2="57.7472" gradientUnits="userSpaceOnUse">
<stop stop-color="#C5E9FA"/>
<stop offset="1" stop-color="#C4F4EA"/>
</linearGradient>
<clipPath id="clip0">
<rect width="200" height="116" fill="white"/>
</clipPath>
</defs>
</svg>
